<svg width="24" height="26" viewBox="0 0 24 26" fill="none" xmlns="http://www.w3.org/2000/svg">
<path d="M23.7277 18.993C23.0339 17.798 22.0027 14.4167 22.0027 10.0005C22.0027 7.34832 20.9491 4.80478 19.0738 2.92942C17.1984 1.05406 14.6549 0.000488281 12.0027 0.000488281C9.35054 0.000488281 6.807 1.05406 4.93163 2.92942C3.05627 4.80478 2.0027 7.34832 2.0027 10.0005C2.0027 14.418 0.970201 17.798 0.276451 18.993C0.0992897 19.2968 0.00536951 19.6419 0.00416218 19.9936C0.00295485 20.3453 0.0945033 20.6911 0.269575 20.9961C0.444647 21.3011 0.697051 21.5546 1.00133 21.7309C1.30562 21.9072 1.65102 22.0002 2.0027 22.0005H7.10395C7.33467 23.1294 7.94823 24.144 8.84087 24.8727C9.7335 25.6014 10.8504 25.9994 12.0027 25.9994C13.155 25.9994 14.2719 25.6014 15.1645 24.8727C16.0572 24.144 16.6707 23.1294 16.9014 22.0005H22.0027C22.3543 22 22.6995 21.9069 23.0036 21.7304C23.3077 21.554 23.56 21.3005 23.7349 20.9956C23.9098 20.6906 24.0013 20.3449 24 19.9933C23.9987 19.6417 23.9048 19.2967 23.7277 18.993ZM12.0027 24.0005C11.3825 24.0003 10.7776 23.8079 10.2712 23.4497C9.76484 23.0915 9.38194 22.5852 9.1752 22.0005H14.8302C14.6235 22.5852 14.2406 23.0915 13.7342 23.4497C13.2278 23.8079 12.6229 24.0003 12.0027 24.0005ZM2.0027 20.0005C2.9652 18.3455 4.0027 14.5105 4.0027 10.0005C4.0027 7.87876 4.84556 5.84392 6.34585 4.34363C7.84614 2.84334 9.88097 2.00049 12.0027 2.00049C14.1244 2.00049 16.1593 2.84334 17.6596 4.34363C19.1598 5.84392 20.0027 7.87876 20.0027 10.0005C20.0027 14.5067 21.0377 18.3417 22.0027 20.0005H2.0027Z" fill="black"/>
</svg>