<svg width="24" height="24" viewBox="0 0 24 24" fill="none" xmlns="http://www.w3.org/2000/svg">
<path d="M23.5737 6.40799C23.4112 6.20363 23.2117 6.0402 22.9886 5.9285C22.7655 5.8168 22.5238 5.75937 22.2794 5.75999H17.1448C17.1448 4.23235 16.6029 2.76727 15.6384 1.68706C14.6739 0.606854 13.3657 0 12.0016 0C10.6376 0 9.32938 0.606854 8.36486 1.68706C7.40033 2.76727 6.85846 4.23235 6.85846 5.75999H1.72387C1.48092 5.76072 1.24084 5.81881 1.01929 5.93047C0.797737 6.04212 0.599694 6.20483 0.43808 6.40799C0.277815 6.61039 0.15755 6.84843 0.0851653 7.10652C0.0127807 7.3646 -0.010089 7.63691 0.018055 7.90558L1.546 22.3056C1.59556 22.7747 1.79784 23.207 2.11414 23.5196C2.43044 23.8322 2.83855 24.0032 3.26039 24H20.7525C21.1743 24.0032 21.5824 23.8322 21.8987 23.5196C22.215 23.207 22.4173 22.7747 22.4669 22.3056L23.9948 7.90558C24.0228 7.63682 23.9998 7.36447 23.9272 7.10638C23.8546 6.84829 23.7342 6.61029 23.5737 6.40799ZM12.0016 1.92C12.911 1.92 13.7831 2.32457 14.4261 3.0447C15.0691 3.76484 15.4304 4.74156 15.4304 5.75999H8.57284C8.57284 4.74156 8.93409 3.76484 9.57711 3.0447C10.2201 2.32457 11.0923 1.92 12.0016 1.92ZM20.7621 22.08C20.759 22.0812 20.7556 22.0812 20.7525 22.08H3.24217L1.72387 7.67999H6.85846V10.56C6.85846 10.8146 6.94877 11.0588 7.10952 11.2388C7.27028 11.4188 7.48831 11.52 7.71565 11.52C7.94299 11.52 8.16102 11.4188 8.32178 11.2388C8.48253 11.0588 8.57284 10.8146 8.57284 10.56V7.67999H15.4304V10.56C15.4304 10.8146 15.5207 11.0588 15.6815 11.2388C15.8422 11.4188 16.0602 11.52 16.2876 11.52C16.5149 11.52 16.733 11.4188 16.8937 11.2388C17.0545 11.0588 17.1448 10.8146 17.1448 10.56V7.67999H22.2879L20.7621 22.08Z" fill="#343330"/>
</svg>

