<svg width="16" height="18" viewBox="0 0 16 18" fill="none" xmlns="http://www.w3.org/2000/svg">
<path d="M14.6667 1.33333H12.6667V0.666667C12.6667 0.489856 12.5964 0.320286 12.4714 0.195262C12.3464 0.0702379 12.1768 0 12 0C11.8232 0 11.6536 0.0702379 11.5286 0.195262C11.4036 0.320286 11.3333 0.489856 11.3333 0.666667V1.33333H4.66667V0.666667C4.66667 0.489856 4.59643 0.320286 4.4714 0.195262C4.34638 0.0702379 4.17681 0 4 0C3.82319 0 3.65362 0.0702379 3.5286 0.195262C3.40357 0.320286 3.33333 0.489856 3.33333 0.666667V1.33333H1.33333C0.979711 1.33333 0.640573 1.47381 0.390524 1.72386C0.140476 1.97391 0 2.31304 0 2.66667V16C0 16.3536 0.140476 16.6928 0.390524 16.9428C0.640573 17.1929 0.979711 17.3333 1.33333 17.3333H14.6667C15.0203 17.3333 15.3594 17.1929 15.6095 16.9428C15.8595 16.6928 16 16.3536 16 16V2.66667C16 2.31304 15.8595 1.97391 15.6095 1.72386C15.3594 1.47381 15.0203 1.33333 14.6667 1.33333ZM3.33333 2.66667V3.33333C3.33333 3.51014 3.40357 3.67971 3.5286 3.80474C3.65362 3.92976 3.82319 4 4 4C4.17681 4 4.34638 3.92976 4.4714 3.80474C4.59643 3.67971 4.66667 3.51014 4.66667 3.33333V2.66667H11.3333V3.33333C11.3333 3.51014 11.4036 3.67971 11.5286 3.80474C11.6536 3.92976 11.8232 4 12 4C12.1768 4 12.3464 3.92976 12.4714 3.80474C12.5964 3.67971 12.6667 3.51014 12.6667 3.33333V2.66667H14.6667V5.33333H1.33333V2.66667H3.33333ZM14.6667 16H1.33333V6.66667H14.6667V16ZM6.66667 8.66667V14C6.66667 14.1768 6.59643 14.3464 6.4714 14.4714C6.34638 14.5964 6.17681 14.6667 6 14.6667C5.82319 14.6667 5.65362 14.5964 5.5286 14.4714C5.40357 14.3464 5.33333 14.1768 5.33333 14V9.745L4.965 9.93C4.80675 10.0091 4.62356 10.0221 4.45571 9.9662C4.28787 9.91025 4.14912 9.78991 4.07 9.63167C3.99088 9.47342 3.97786 9.29023 4.03381 9.12238C4.08975 8.95454 4.21009 8.81579 4.36833 8.73667L5.70167 8.07C5.80334 8.01912 5.91634 7.99509 6.02993 8.0002C6.14351 8.0053 6.2539 8.03937 6.3506 8.09916C6.4473 8.15895 6.52711 8.24248 6.58243 8.34181C6.63775 8.44114 6.66675 8.55297 6.66667 8.66667ZM11.5967 11.2042L10 13.3333H11.3333C11.5101 13.3333 11.6797 13.4036 11.8047 13.5286C11.9298 13.6536 12 13.8232 12 14C12 14.1768 11.9298 14.3464 11.8047 14.4714C11.6797 14.5964 11.5101 14.6667 11.3333 14.6667H8.66667C8.54286 14.6667 8.4215 14.6322 8.31618 14.5671C8.21086 14.502 8.12575 14.4089 8.07038 14.2981C8.01501 14.1874 7.99157 14.0634 8.00269 13.9401C8.01381 13.8168 8.05905 13.699 8.13333 13.6L10.5317 10.4025C10.5862 10.3299 10.6254 10.2469 10.6467 10.1586C10.668 10.0703 10.671 9.97857 10.6556 9.88905C10.6402 9.79954 10.6067 9.71411 10.5571 9.63802C10.5075 9.56194 10.4429 9.49679 10.3672 9.44657C10.2915 9.39636 10.2063 9.36214 10.1169 9.34602C10.0276 9.3299 9.93582 9.33222 9.84736 9.35283C9.7589 9.37344 9.67558 9.41191 9.60252 9.46588C9.52946 9.51984 9.4682 9.58817 9.4225 9.66667C9.38002 9.7449 9.32229 9.81384 9.25274 9.8694C9.18318 9.92497 9.1032 9.96604 9.01752 9.99019C8.93183 10.0143 8.84218 10.0211 8.75384 10.01C8.6655 9.99898 8.58028 9.97035 8.50319 9.92582C8.4261 9.88129 8.35871 9.82177 8.30499 9.75078C8.25128 9.67978 8.21233 9.59875 8.19044 9.51246C8.16855 9.42617 8.16416 9.33636 8.17754 9.24835C8.19092 9.16033 8.22179 9.07589 8.26833 9C8.48855 8.61891 8.82834 8.3211 9.23501 8.15275C9.64169 7.9844 10.0925 7.9549 10.5177 8.06883C10.9428 8.18276 11.3185 8.43375 11.5865 8.7829C11.8545 9.13205 11.9999 9.55986 12 10C12.0014 10.4348 11.8597 10.8579 11.5967 11.2042Z" fill="#343330"/>
</svg>
