<svg width="16" height="14" viewBox="0 0 16 14" fill="none" xmlns="http://www.w3.org/2000/svg">
<path d="M14.7692 2.46153H8.25462L6.15385 0.36076C6.03997 0.245975 5.90442 0.154971 5.75506 0.0930364C5.60571 0.0311023 5.44553 -0.000525597 5.28385 -9.0319e-06H1.23077C0.904349 -9.0319e-06 0.591298 0.129661 0.360484 0.360475C0.12967 0.591289 0 0.90434 0 1.23076V12.3554C0.000407069 12.669 0.125183 12.9697 0.346965 13.1915C0.568747 13.4133 0.869431 13.538 1.18308 13.5385H14.8377C15.1458 13.538 15.4412 13.4155 15.6591 13.1976C15.877 12.9797 15.9996 12.6843 16 12.3761V3.6923C16 3.36588 15.8703 3.05283 15.6395 2.82201C15.4087 2.5912 15.0957 2.46153 14.7692 2.46153ZM1.23077 1.23076H5.28385L6.51462 2.46153H1.23077V1.23076ZM14.7692 12.3077H1.23077V3.6923H14.7692V12.3077Z" fill="#343330"/>
</svg>
