<svg width="16" height="16" viewBox="0 0 16 16" fill="none" xmlns="http://www.w3.org/2000/svg">
<path d="M11.4277 3.71478C11.4277 3.88433 11.3774 4.05008 11.2832 4.19106C11.189 4.33204 11.0552 4.44193 10.8985 4.50681C10.7419 4.5717 10.5695 4.58868 10.4032 4.5556C10.2369 4.52252 10.0841 4.44087 9.96423 4.32098C9.84434 4.20108 9.76269 4.04833 9.72961 3.88203C9.69653 3.71573 9.71351 3.54335 9.7784 3.3867C9.84328 3.23006 9.95316 3.09616 10.0941 3.00196C10.2351 2.90776 10.4009 2.85748 10.5704 2.85748C10.7978 2.85748 11.0159 2.94781 11.1766 3.10858C11.3374 3.26935 11.4277 3.48741 11.4277 3.71478ZM13.681 10.1995C11.7478 12.1284 8.72154 12.9393 4.65654 12.6249C4.77037 13.4746 4.92992 14.3693 5.13519 15.309C5.16747 15.457 5.13962 15.6119 5.05777 15.7394C4.97591 15.8669 4.84675 15.9568 4.69869 15.9891C4.65836 15.9981 4.61714 16.0027 4.57581 16.0026C4.44564 16.0024 4.31945 15.9577 4.21812 15.876C4.11679 15.7943 4.04639 15.6804 4.01857 15.5533C3.78472 14.485 3.60873 13.4696 3.49062 12.507C2.52854 12.3884 1.51384 12.2125 0.44651 11.9791C0.299097 11.946 0.170764 11.856 0.0895678 11.7286C0.00837202 11.6012 -0.0190808 11.4468 0.0132114 11.2992C0.0455035 11.1517 0.134914 11.0229 0.261894 10.941C0.388874 10.8592 0.543095 10.8309 0.690839 10.8625C1.62958 11.0673 2.52354 11.2268 3.37274 11.3411C3.05911 7.27683 3.87283 4.2513 5.80174 2.31882C8.92729 -0.816019 13.8874 0.0641356 14.8498 0.272744C15.0647 0.319574 15.2616 0.427151 15.4171 0.582678C15.5726 0.738206 15.6802 0.935135 15.7271 1.15004C15.9357 2.11235 16.8165 7.07251 13.681 10.1995ZM12.6094 9.63582C11.0373 9.39833 9.58271 8.6634 8.45887 7.53879C7.33503 6.41418 6.6011 4.95908 6.36469 3.38686C4.82371 5.12645 4.21217 7.83479 4.52794 11.4697C8.16358 11.7876 10.8719 11.1761 12.6115 9.63582H12.6094ZM14.6097 1.39223C13.4531 1.1531 12.2674 1.08617 11.0912 1.19362C9.64527 1.3365 8.41934 1.753 7.42988 2.44098C7.46918 4.05437 8.12743 5.59086 9.26835 6.73231C10.4093 7.87375 11.9454 8.53272 13.5588 8.57277C14.2461 7.58331 14.6654 6.3581 14.8062 4.91142C14.9132 3.73506 14.847 2.54936 14.6097 1.39223Z" fill="#343330"/>
</svg>
