<svg width="16" height="18" viewBox="0 0 16 18" fill="none" xmlns="http://www.w3.org/2000/svg">
<path d="M15.8184 12.6639C15.3559 11.8671 14.6682 9.61249 14.6682 6.66782C14.6682 4.8994 13.9657 3.20342 12.7153 1.95296C11.4648 0.7025 9.76883 0 8.00042 0C6.232 0 4.53602 0.7025 3.28556 1.95296C2.0351 3.20342 1.3326 4.8994 1.3326 6.66782C1.3326 9.61333 0.644145 11.8671 0.181565 12.6639C0.0634372 12.8664 0.000812886 13.0966 7.86049e-06 13.3311C-0.000797165 13.5656 0.0602457 13.7961 0.17698 13.9995C0.293715 14.2029 0.462013 14.3719 0.664903 14.4895C0.867793 14.607 1.0981 14.669 1.3326 14.6692H4.73402C4.88786 15.422 5.29697 16.0985 5.89216 16.5843C6.48736 17.0702 7.2321 17.3356 8.00042 17.3356C8.76874 17.3356 9.51348 17.0702 10.1087 16.5843C10.7039 16.0985 11.113 15.422 11.2668 14.6692H14.6682C14.9027 14.6689 15.1329 14.6068 15.3356 14.4891C15.5384 14.3715 15.7066 14.2025 15.8232 13.9991C15.9399 13.7958 16.0008 13.5653 16 13.3309C15.9991 13.0964 15.9365 12.8664 15.8184 12.6639ZM8.00042 16.0028C7.58686 16.0026 7.18351 15.8743 6.84588 15.6355C6.50825 15.3967 6.25294 15.0591 6.11509 14.6692H9.88574C9.74789 15.0591 9.49258 15.3967 9.15495 15.6355C8.81732 15.8743 8.41397 16.0026 8.00042 16.0028ZM1.3326 13.3356C1.97438 12.2321 2.66616 9.675 2.66616 6.66782C2.66616 5.25309 3.22816 3.8963 4.22853 2.89593C5.2289 1.89556 6.58568 1.33356 8.00042 1.33356C9.41515 1.33356 10.7719 1.89556 11.7723 2.89593C12.7727 3.8963 13.3347 5.25309 13.3347 6.66782C13.3347 9.6725 14.0248 12.2296 14.6682 13.3356H1.3326Z" fill="#343330"/>
</svg>
