<svg width="16" height="14" viewBox="0 0 16 14" fill="none" xmlns="http://www.w3.org/2000/svg">
<path d="M16 0.615385V3.69231C16 3.85552 15.9352 4.01204 15.8198 4.12745C15.7044 4.24286 15.5478 4.30769 15.3846 4.30769C15.2214 4.30769 15.0649 4.24286 14.9495 4.12745C14.8341 4.01204 14.7692 3.85552 14.7692 3.69231V1.23077H12.3077C12.1445 1.23077 11.988 1.16593 11.8725 1.05053C11.7571 0.93512 11.6923 0.778595 11.6923 0.615385C11.6923 0.452174 11.7571 0.295649 11.8725 0.180242C11.988 0.0648351 12.1445 0 12.3077 0H15.3846C15.5478 0 15.7044 0.0648351 15.8198 0.180242C15.9352 0.295649 16 0.452174 16 0.615385ZM3.69231 12.3077H1.23077V9.84615C1.23077 9.68294 1.16593 9.52642 1.05053 9.41101C0.93512 9.2956 0.778595 9.23077 0.615385 9.23077C0.452174 9.23077 0.295649 9.2956 0.180242 9.41101C0.064835 9.52642 0 9.68294 0 9.84615V12.9231C0 13.0863 0.064835 13.2428 0.180242 13.3582C0.295649 13.4736 0.452174 13.5385 0.615385 13.5385H3.69231C3.85552 13.5385 4.01204 13.4736 4.12745 13.3582C4.24286 13.2428 4.30769 13.0863 4.30769 12.9231C4.30769 12.7599 4.24286 12.6033 4.12745 12.4879C4.01204 12.3725 3.85552 12.3077 3.69231 12.3077ZM15.3846 9.23077C15.2214 9.23077 15.0649 9.2956 14.9495 9.41101C14.8341 9.52642 14.7692 9.68294 14.7692 9.84615V12.3077H12.3077C12.1445 12.3077 11.988 12.3725 11.8725 12.4879C11.7571 12.6033 11.6923 12.7599 11.6923 12.9231C11.6923 13.0863 11.7571 13.2428 11.8725 13.3582C11.988 13.4736 12.1445 13.5385 12.3077 13.5385H15.3846C15.5478 13.5385 15.7044 13.4736 15.8198 13.3582C15.9352 13.2428 16 13.0863 16 12.9231V9.84615C16 9.68294 15.9352 9.52642 15.8198 9.41101C15.7044 9.2956 15.5478 9.23077 15.3846 9.23077ZM0.615385 4.30769C0.778595 4.30769 0.93512 4.24286 1.05053 4.12745C1.16593 4.01204 1.23077 3.85552 1.23077 3.69231V1.23077H3.69231C3.85552 1.23077 4.01204 1.16593 4.12745 1.05053C4.24286 0.93512 4.30769 0.778595 4.30769 0.615385C4.30769 0.452174 4.24286 0.295649 4.12745 0.180242C4.01204 0.0648351 3.85552 0 3.69231 0H0.615385C0.452174 0 0.295649 0.0648351 0.180242 0.180242C0.064835 0.295649 0 0.452174 0 0.615385V3.69231C0 3.85552 0.064835 4.01204 0.180242 4.12745C0.295649 4.24286 0.452174 4.30769 0.615385 4.30769ZM4.30769 3.07692C4.14448 3.07692 3.98796 3.14176 3.87255 3.25716C3.75714 3.37257 3.69231 3.5291 3.69231 3.69231V9.84615C3.69231 10.0094 3.75714 10.1659 3.87255 10.2813C3.98796 10.3967 4.14448 10.4615 4.30769 10.4615C4.4709 10.4615 4.62743 10.3967 4.74284 10.2813C4.85824 10.1659 4.92308 10.0094 4.92308 9.84615V3.69231C4.92308 3.5291 4.85824 3.37257 4.74284 3.25716C4.62743 3.14176 4.4709 3.07692 4.30769 3.07692ZM12.3077 9.84615V3.69231C12.3077 3.5291 12.2429 3.37257 12.1275 3.25716C12.012 3.14176 11.8555 3.07692 11.6923 3.07692C11.5291 3.07692 11.3726 3.14176 11.2572 3.25716C11.1418 3.37257 11.0769 3.5291 11.0769 3.69231V9.84615C11.0769 10.0094 11.1418 10.1659 11.2572 10.2813C11.3726 10.3967 11.5291 10.4615 11.6923 10.4615C11.8555 10.4615 12.012 10.3967 12.1275 10.2813C12.2429 10.1659 12.3077 10.0094 12.3077 9.84615ZM9.23077 3.07692C9.06756 3.07692 8.91103 3.14176 8.79563 3.25716C8.68022 3.37257 8.61538 3.5291 8.61538 3.69231V9.84615C8.61538 10.0094 8.68022 10.1659 8.79563 10.2813C8.91103 10.3967 9.06756 10.4615 9.23077 10.4615C9.39398 10.4615 9.55051 10.3967 9.66591 10.2813C9.78132 10.1659 9.84615 10.0094 9.84615 9.84615V3.69231C9.84615 3.5291 9.78132 3.37257 9.66591 3.25716C9.55051 3.14176 9.39398 3.07692 9.23077 3.07692ZM6.76923 3.07692C6.60602 3.07692 6.4495 3.14176 6.33409 3.25716C6.21868 3.37257 6.15385 3.5291 6.15385 3.69231V9.84615C6.15385 10.0094 6.21868 10.1659 6.33409 10.2813C6.4495 10.3967 6.60602 10.4615 6.76923 10.4615C6.93244 10.4615 7.08897 10.3967 7.20437 10.2813C7.31978 10.1659 7.38462 10.0094 7.38462 9.84615V3.69231C7.38462 3.5291 7.31978 3.37257 7.20437 3.25716C7.08897 3.14176 6.93244 3.07692 6.76923 3.07692Z" fill="#343330"/>
</svg>
