<svg width="16" height="17" viewBox="0 0 16 17" fill="none" xmlns="http://www.w3.org/2000/svg">
<path d="M4.55643 7.79996L7.40158 1.5C7.96751 1.5 8.51027 1.72125 8.91044 2.11507C9.31062 2.5089 9.53544 3.04304 9.53544 3.59999V6.39997H13.5613C13.7675 6.39767 13.9718 6.43952 14.1599 6.52262C14.3481 6.60572 14.5156 6.72808 14.6509 6.88123C14.7862 7.03437 14.8861 7.21464 14.9436 7.40954C15.0011 7.60444 15.0148 7.80931 14.9839 8.00996L14.0023 14.3099C13.9509 14.6437 13.7786 14.948 13.5172 15.1667C13.2557 15.3854 12.9228 15.5037 12.5797 15.4999H4.55643M4.55643 7.79996V15.4999M4.55643 7.79996H2.42257C2.04528 7.79996 1.68345 7.94746 1.41666 8.21001C1.14988 8.47256 1 8.82865 1 9.19995V14.0999C1 14.4712 1.14988 14.8273 1.41666 15.0899C1.68345 15.3524 2.04528 15.4999 2.42257 15.4999H4.55643" stroke="#272323" stroke-width="2" stroke-linecap="round" stroke-linejoin="round"/>
</svg>
