<svg width="16" height="15" viewBox="0 0 16 15" fill="none" xmlns="http://www.w3.org/2000/svg">
<path d="M14.7692 0H1.23079C0.904369 0 0.591319 0.12967 0.360505 0.360483C0.129691 0.591297 2.14302e-05 0.904348 2.14302e-05 1.23077V13.5384C-0.00136922 13.773 0.0649492 14.003 0.191021 14.2009C0.317094 14.3987 0.497566 14.556 0.71079 14.6538C0.873726 14.7295 1.05115 14.7688 1.23079 14.7692C1.51971 14.7685 1.79906 14.6655 2.01925 14.4784C2.02292 14.476 2.02628 14.4732 2.02925 14.47L4.50002 12.3077H14.7692C15.0957 12.3077 15.4087 12.178 15.6395 11.9472C15.8703 11.7164 16 11.4033 16 11.0769V1.23077C16 0.904348 15.8703 0.591297 15.6395 0.360483C15.4087 0.12967 15.0957 0 14.7692 0ZM14.7692 11.0769H4.50002C4.21019 11.0768 3.92961 11.1789 3.70771 11.3654L3.69848 11.3738L1.23079 13.5384V1.23077H14.7692V11.0769ZM4.92309 4.92307C4.92309 4.75986 4.98793 4.60334 5.10333 4.48793C5.21874 4.37252 5.37527 4.30769 5.53848 4.30769H10.4615C10.6248 4.30769 10.7813 4.37252 10.8967 4.48793C11.0121 4.60334 11.0769 4.75986 11.0769 4.92307C11.0769 5.08628 11.0121 5.24281 10.8967 5.35821C10.7813 5.47362 10.6248 5.53845 10.4615 5.53845H5.53848C5.37527 5.53845 5.21874 5.47362 5.10333 5.35821C4.98793 5.24281 4.92309 5.08628 4.92309 4.92307ZM4.92309 7.38461C4.92309 7.2214 4.98793 7.06487 5.10333 6.94946C5.21874 6.83406 5.37527 6.76922 5.53848 6.76922H10.4615C10.6248 6.76922 10.7813 6.83406 10.8967 6.94946C11.0121 7.06487 11.0769 7.2214 11.0769 7.38461C11.0769 7.54782 11.0121 7.70434 10.8967 7.81975C10.7813 7.93516 10.6248 7.99999 10.4615 7.99999H5.53848C5.37527 7.99999 5.21874 7.93516 5.10333 7.81975C4.98793 7.70434 4.92309 7.54782 4.92309 7.38461Z" fill="#343330"/>
</svg>
