<svg width="16" height="16" viewBox="0 0 16 16" fill="none" xmlns="http://www.w3.org/2000/svg">
<path d="M14.6667 0H1.33333C0.979711 0 0.640573 0.140476 0.390524 0.390524C0.140476 0.640573 0 0.979711 0 1.33333V14.6667C0 15.0203 0.140476 15.3594 0.390524 15.6095C0.640573 15.8595 0.979711 16 1.33333 16H14.6667C15.0203 16 15.3594 15.8595 15.6095 15.6095C15.8595 15.3594 16 15.0203 16 14.6667V1.33333C16 0.979711 15.8595 0.640573 15.6095 0.390524C15.3594 0.140476 15.0203 0 14.6667 0ZM5.33333 7.33333C5.33333 6.80592 5.48973 6.29034 5.78275 5.85181C6.07577 5.41328 6.49224 5.07149 6.97951 4.86965C7.46678 4.66782 8.00296 4.61501 8.52024 4.71791C9.03752 4.8208 9.51268 5.07478 9.88562 5.44772C10.2586 5.82066 10.5125 6.29581 10.6154 6.81309C10.7183 7.33038 10.6655 7.86655 10.4637 8.35382C10.2618 8.84109 9.92005 9.25757 9.48152 9.55059C9.04299 9.8436 8.52742 10 8 10C7.29276 10 6.61448 9.71905 6.11438 9.21895C5.61428 8.71885 5.33333 8.04058 5.33333 7.33333ZM3.05583 14.6667C3.39699 13.8268 3.94545 13.0871 4.65 12.5167C5.5986 11.7509 6.7809 11.3333 8 11.3333C9.2191 11.3333 10.4014 11.7509 11.35 12.5167C12.0545 13.0871 12.603 13.8268 12.9442 14.6667H3.05583ZM14.6667 14.6667H14.3608C14.0644 13.7231 13.5615 12.8573 12.8886 12.1324C12.2157 11.4075 11.3898 10.8416 10.4708 10.4758C11.1251 9.96196 11.6028 9.25689 11.8375 8.45878C12.0722 7.66068 12.0522 6.80925 11.7804 6.02302C11.5085 5.23679 10.9983 4.55488 10.3207 4.07223C9.64311 3.58958 8.83191 3.3302 8 3.3302C7.16809 3.3302 6.35689 3.58958 5.67931 4.07223C5.00172 4.55488 4.49149 5.23679 4.21962 6.02302C3.94776 6.80925 3.9278 7.66068 4.16251 8.45878C4.39723 9.25689 4.87495 9.96196 5.52917 10.4758C4.61021 10.8416 3.78428 11.4075 3.1114 12.1324C2.43852 12.8573 1.93559 13.7231 1.63917 14.6667H1.33333V1.33333H14.6667V14.6667Z" fill="#343330"/>
</svg>
