<svg width="16" height="14" viewBox="0 0 16 14" fill="none" xmlns="http://www.w3.org/2000/svg">
<path d="M16 7C16 7.20628 15.9298 7.40411 15.8047 7.54997C15.6797 7.69583 15.5101 7.77778 15.3333 7.77778H0.666667C0.489856 7.77778 0.320287 7.69583 0.195262 7.54997C0.070238 7.40411 0 7.20628 0 7C0 6.79372 0.070238 6.59589 0.195262 6.45003C0.320287 6.30417 0.489856 6.22222 0.666667 6.22222H15.3333C15.5101 6.22222 15.6797 6.30417 15.8047 6.45003C15.9298 6.59589 16 6.79372 16 7ZM0.666667 1.55556H15.3333C15.5101 1.55556 15.6797 1.47361 15.8047 1.32775C15.9298 1.18189 16 0.984057 16 0.777778C16 0.571498 15.9298 0.373668 15.8047 0.227806C15.6797 0.0819444 15.5101 0 15.3333 0H0.666667C0.489856 0 0.320287 0.0819444 0.195262 0.227806C0.070238 0.373668 0 0.571498 0 0.777778C0 0.984057 0.070238 1.18189 0.195262 1.32775C0.320287 1.47361 0.489856 1.55556 0.666667 1.55556ZM15.3333 12.4444H0.666667C0.489856 12.4444 0.320287 12.5264 0.195262 12.6722C0.070238 12.8181 0 13.0159 0 13.2222C0 13.4285 0.070238 13.6263 0.195262 13.7722C0.320287 13.9181 0.489856 14 0.666667 14H15.3333C15.5101 14 15.6797 13.9181 15.8047 13.7722C15.9298 13.6263 16 13.4285 16 13.2222C16 13.0159 15.9298 12.8181 15.8047 12.6722C15.6797 12.5264 15.5101 12.4444 15.3333 12.4444Z" fill="#343330"/>
</svg>
