<svg width="17" height="11" viewBox="0 0 17 11" fill="none" xmlns="http://www.w3.org/2000/svg">
<path d="M7.58934 6.98861C8.27118 6.53468 8.78884 5.87337 9.06577 5.10248C9.3427 4.33159 9.36419 3.49205 9.12708 2.708C8.88996 1.92395 8.40682 1.23702 7.7491 0.748788C7.09138 0.26056 6.294 -0.00304413 5.47488 -0.00304413C4.65576 -0.00304413 3.85838 0.26056 3.20066 0.748788C2.54294 1.23702 2.0598 1.92395 1.82269 2.708C1.58557 3.49205 1.60707 4.33159 1.88399 5.10248C2.16092 5.87337 2.67858 6.53468 3.36043 6.98861C2.12704 7.44319 1.0737 8.28439 0.357582 9.38669C0.319945 9.44263 0.293802 9.50549 0.280674 9.57162C0.267545 9.63775 0.267692 9.70583 0.281106 9.7719C0.29452 9.83797 0.320934 9.90072 0.358812 9.9565C0.39669 10.0123 0.445277 10.06 0.501748 10.0968C0.558219 10.1336 0.621448 10.1589 0.68776 10.1711C0.754072 10.1832 0.822143 10.1821 0.888018 10.1678C0.953893 10.1534 1.01626 10.1261 1.07148 10.0874C1.12671 10.0487 1.1737 9.99948 1.20972 9.94249C1.67165 9.23202 2.30374 8.6482 3.04859 8.24404C3.79344 7.83988 4.62745 7.62819 5.47488 7.62819C6.32231 7.62819 7.15632 7.83988 7.90117 8.24404C8.64602 8.6482 9.27811 9.23202 9.74004 9.94249C9.81466 10.0534 9.92992 10.1305 10.0609 10.1571C10.1919 10.1837 10.3281 10.1576 10.4401 10.0846C10.552 10.0116 10.6307 9.89743 10.6592 9.76683C10.6877 9.63623 10.6636 9.49968 10.5922 9.38669C9.87606 8.28439 8.82272 7.44319 7.58934 6.98861ZM2.67681 3.81406C2.67681 3.26066 2.84091 2.71968 3.14837 2.25953C3.45582 1.79939 3.89282 1.44076 4.4041 1.22898C4.91539 1.0172 5.47799 0.961786 6.02076 1.06975C6.56353 1.17772 7.0621 1.44421 7.45342 1.83552C7.84474 2.22684 8.11123 2.72541 8.21919 3.26818C8.32716 3.81096 8.27175 4.37356 8.05997 4.88484C7.84819 5.39612 7.48955 5.83312 7.02941 6.14058C6.56927 6.44803 6.02829 6.61214 5.47488 6.61214C4.73304 6.6113 4.02183 6.31623 3.49727 5.79167C2.97271 5.26711 2.67765 4.5559 2.67681 3.81406ZM16.0402 10.0907C15.9272 10.1643 15.7895 10.1901 15.6575 10.1623C15.5255 10.1346 15.4099 10.0555 15.3362 9.94249C14.8748 9.2316 14.2428 8.64752 13.4978 8.24353C12.7528 7.83954 11.9185 7.62849 11.071 7.62962C10.9361 7.62962 10.8067 7.57602 10.7113 7.48061C10.6159 7.38521 10.5623 7.25581 10.5623 7.12088C10.5623 6.98595 10.6159 6.85655 10.7113 6.76115C10.8067 6.66574 10.9361 6.61214 11.071 6.61214C11.4831 6.61175 11.89 6.52036 12.2626 6.34449C12.6353 6.16862 12.9645 5.91261 13.2267 5.59477C13.4889 5.27692 13.6777 4.90508 13.7796 4.50581C13.8815 4.10654 13.8939 3.6897 13.816 3.28507C13.7381 2.88044 13.5718 2.49801 13.329 2.1651C13.0861 1.8322 12.7728 1.55704 12.4113 1.35928C12.0497 1.16152 11.649 1.04605 11.2377 1.02112C10.8264 0.99618 10.4147 1.0624 10.0319 1.21503C9.96953 1.24201 9.90234 1.2562 9.83436 1.25678C9.76638 1.25735 9.69897 1.2443 9.63611 1.21838C9.57326 1.19246 9.51624 1.1542 9.46842 1.10587C9.4206 1.05755 9.38296 1.00012 9.35771 0.936998C9.33246 0.873873 9.32012 0.806328 9.32141 0.738353C9.32271 0.670378 9.33762 0.603352 9.36526 0.541237C9.3929 0.479121 9.4327 0.423175 9.48233 0.376705C9.53196 0.330235 9.5904 0.294183 9.65419 0.27068C10.5302 -0.078665 11.5045 -0.0912365 12.3891 0.235391C13.2738 0.562018 14.0062 1.2047 14.445 2.03946C14.8838 2.87421 14.9979 3.84189 14.7653 4.75582C14.5327 5.66974 13.9699 6.46515 13.1855 6.98861C14.4189 7.44319 15.4722 8.28439 16.1883 9.38669C16.262 9.49969 16.2878 9.63734 16.26 9.76935C16.2322 9.90137 16.1532 10.0169 16.0402 10.0907Z" fill="#343330"/>
</svg>
