<svg width="21" height="20" viewBox="0 0 21 20" fill="none" xmlns="http://www.w3.org/2000/svg">
<path d="M0.469482 2.22222V17.7778C0.469482 19 1.45837 20 2.6917 20H18.2473C19.4695 20 20.4695 19 20.4695 17.7778V2.22222C20.4695 1 19.4695 0 18.2473 0H2.6917C1.45837 0 0.469482 1 0.469482 2.22222ZM13.8028 6.66667C13.8028 8.51111 12.3139 10 10.4695 10C8.62504 10 7.13615 8.51111 7.13615 6.66667C7.13615 4.82222 8.62504 3.33333 10.4695 3.33333C12.3139 3.33333 13.8028 4.82222 13.8028 6.66667ZM3.80282 15.5556C3.80282 13.3333 8.24726 12.1111 10.4695 12.1111C12.6917 12.1111 17.1362 13.3333 17.1362 15.5556V16.6667H3.80282V15.5556Z" fill="black" fill-opacity="0.45"/>
</svg>