<svg width="29" height="20" viewBox="0 0 29 20" fill="none" xmlns="http://www.w3.org/2000/svg">
<path d="M20.9592 10C22.9306 10 24.5163 8.4 24.5163 6.42857C24.5163 4.45714 22.9306 2.85714 20.9592 2.85714C18.9877 2.85714 17.3877 4.45714 17.3877 6.42857C17.3877 8.4 18.9877 10 20.9592 10ZM10.2449 8.57143C12.6163 8.57143 14.5163 6.65714 14.5163 4.28571C14.5163 1.91429 12.6163 0 10.2449 0C7.87344 0 5.95916 1.91429 5.95916 4.28571C5.95916 6.65714 7.87344 8.57143 10.2449 8.57143ZM20.9592 12.8571C18.3449 12.8571 13.102 14.1714 13.102 16.7857V20H28.8163V16.7857C28.8163 14.1714 23.5734 12.8571 20.9592 12.8571ZM10.2449 11.4286C6.9163 11.4286 0.244873 13.1 0.244873 16.4286V20H10.2449V16.7857C10.2449 15.5714 10.7163 13.4429 13.6306 11.8286C12.3877 11.5714 11.1877 11.4286 10.2449 11.4286Z" fill="#9D9D9D"/>
</svg>