<svg width="16" height="18" viewBox="0 0 16 18" fill="none" xmlns="http://www.w3.org/2000/svg">
<path d="M8 4.92401C7.26973 4.92401 6.55586 5.14056 5.94866 5.54628C5.34147 5.952 4.86821 6.52866 4.58875 7.20334C4.30929 7.87802 4.23617 8.62042 4.37864 9.33666C4.52111 10.0529 4.87277 10.7108 5.38914 11.2272C5.90552 11.7436 6.56343 12.0952 7.27967 12.2377C7.9959 12.3802 8.7383 12.307 9.41299 12.0276C10.0877 11.7481 10.6643 11.2749 11.07 10.6677C11.4758 10.0605 11.6923 9.34659 11.6923 8.61632C11.6911 7.63744 11.3017 6.69899 10.6095 6.00681C9.91733 5.31464 8.97889 4.92524 8 4.92401ZM8 11.0779C7.51315 11.0779 7.03724 10.9335 6.63244 10.663C6.22765 10.3925 5.91214 10.0081 5.72583 9.55831C5.53953 9.10852 5.49078 8.61359 5.58576 8.1361C5.68074 7.65861 5.91518 7.22 6.25943 6.87575C6.60368 6.5315 7.04229 6.29706 7.51978 6.20208C7.99727 6.1071 8.4922 6.15585 8.94199 6.34216C9.39178 6.52846 9.77622 6.84397 10.0467 7.24876C10.3172 7.65356 10.4615 8.12948 10.4615 8.61632C10.4615 9.26916 10.2022 9.89526 9.74057 10.3569C9.27894 10.8185 8.65284 11.0779 8 11.0779ZM15.36 3.85863L8.59077 0.154784C8.4099 0.054847 8.20664 0.00242615 8 0.00242615C7.79336 0.00242615 7.5901 0.054847 7.40923 0.154784L0.64 3.86017C0.446683 3.96594 0.28531 4.12168 0.172732 4.31111C0.060154 4.50054 0.000500198 4.71673 0 4.93709V12.294C0.000500198 12.5144 0.060154 12.7306 0.172732 12.92C0.28531 13.1094 0.446683 13.2652 0.64 13.3709L7.40923 17.0763C7.5901 17.1763 7.79336 17.2287 8 17.2287C8.20664 17.2287 8.4099 17.1763 8.59077 17.0763L15.36 13.3709C15.5533 13.2652 15.7147 13.1094 15.8273 12.92C15.9398 12.7306 15.9995 12.5144 16 12.294V4.93786C15.9999 4.71711 15.9405 4.50044 15.8279 4.31056C15.7153 4.12069 15.5537 3.96459 15.36 3.85863ZM8 16.0009L1.23077 12.2948V4.93786L8 1.23171L14.7692 4.93709V12.294L8 16.0009Z" fill="#343330"/>
</svg>
