<svg width="14" height="17" viewBox="0 0 14 17" fill="none" xmlns="http://www.w3.org/2000/svg">
<path d="M13.3636 0H2.54545C1.87036 0 1.22291 0.268181 0.745546 0.745546C0.268181 1.22291 0 1.87036 0 2.54545V15.9091C0 16.0779 0.0670454 16.2397 0.186387 16.3591C0.305728 16.4784 0.467589 16.5455 0.636364 16.5455H12.0909C12.2597 16.5455 12.4215 16.4784 12.5409 16.3591C12.6602 16.2397 12.7273 16.0779 12.7273 15.9091C12.7273 15.7403 12.6602 15.5785 12.5409 15.4591C12.4215 15.3398 12.2597 15.2727 12.0909 15.2727H1.27273C1.27273 14.9352 1.40682 14.6115 1.6455 14.3728C1.88418 14.1341 2.20791 14 2.54545 14H13.3636C13.5324 14 13.6943 13.933 13.8136 13.8136C13.933 13.6943 14 13.5324 14 13.3636V0.636364C14 0.467589 13.933 0.305728 13.8136 0.186387C13.6943 0.0670452 13.5324 0 13.3636 0ZM6.36364 1.27273H10.1818V7L8.65375 5.85455C8.5436 5.77193 8.40962 5.72727 8.27193 5.72727C8.13424 5.72727 8.00027 5.77193 7.89011 5.85455L6.36364 7V1.27273ZM12.7273 12.7273H2.54545C2.09852 12.7267 1.6594 12.8444 1.27273 13.0685V2.54545C1.27273 2.20791 1.40682 1.88418 1.6455 1.6455C1.88418 1.40682 2.20791 1.27273 2.54545 1.27273H5.09091V8.27273C5.09091 8.39091 5.12382 8.50675 5.18595 8.60728C5.24808 8.70781 5.33698 8.78906 5.44268 8.84191C5.54839 8.89476 5.66672 8.91713 5.78442 8.90652C5.90212 8.89591 6.01455 8.85273 6.10909 8.78182L8.27273 7.15909L10.4372 8.78182C10.5471 8.86427 10.6808 8.90892 10.8182 8.90909C10.987 8.90909 11.1488 8.84205 11.2682 8.7227C11.3875 8.60336 11.4545 8.4415 11.4545 8.27273V1.27273H12.7273V12.7273Z" fill="#343330"/>
</svg>
