<svg width="16" height="14" viewBox="0 0 16 14" fill="none" xmlns="http://www.w3.org/2000/svg">
<path d="M14.7692 0H1.23077C0.904349 0 0.591298 0.12967 0.360484 0.360484C0.12967 0.591298 0 0.904349 0 1.23077V12.3077C0 12.6341 0.12967 12.9472 0.360484 13.178C0.591298 13.4088 0.904349 13.5385 1.23077 13.5385H14.7692C15.0957 13.5385 15.4087 13.4088 15.6395 13.178C15.8703 12.9472 16 12.6341 16 12.3077V1.23077C16 0.904349 15.8703 0.591298 15.6395 0.360484C15.4087 0.12967 15.0957 0 14.7692 0ZM14.7692 12.3077H1.23077V1.23077H14.7692V12.3077ZM11.6923 3.69231C11.6923 4.67157 11.3033 5.61072 10.6109 6.30316C9.91841 6.99561 8.97926 7.38462 8 7.38462C7.02074 7.38462 6.08159 6.99561 5.38914 6.30316C4.6967 5.61072 4.30769 4.67157 4.30769 3.69231C4.30769 3.5291 4.37253 3.37257 4.48793 3.25717C4.60334 3.14176 4.75987 3.07692 4.92308 3.07692C5.08629 3.07692 5.24281 3.14176 5.35822 3.25717C5.47363 3.37257 5.53846 3.5291 5.53846 3.69231C5.53846 4.34515 5.7978 4.97125 6.25943 5.43288C6.72106 5.89451 7.34716 6.15385 8 6.15385C8.65284 6.15385 9.27894 5.89451 9.74057 5.43288C10.2022 4.97125 10.4615 4.34515 10.4615 3.69231C10.4615 3.5291 10.5264 3.37257 10.6418 3.25717C10.7572 3.14176 10.9137 3.07692 11.0769 3.07692C11.2401 3.07692 11.3967 3.14176 11.5121 3.25717C11.6275 3.37257 11.6923 3.5291 11.6923 3.69231Z" fill="#343330"/>
</svg>
