<svg width="17" height="17" viewBox="0 0 17 17" fill="none" xmlns="http://www.w3.org/2000/svg">
<path d="M16.7922 15.9224L12.9449 12.0758C14.06 10.737 14.616 9.01987 14.4973 7.28156C14.3787 5.54324 13.5944 3.9176 12.3077 2.74281C11.0209 1.56802 9.3308 0.934528 7.58889 0.974116C5.84698 1.0137 4.18739 1.72332 2.95536 2.95536C1.72332 4.18739 1.0137 5.84698 0.974116 7.58889C0.934528 9.3308 1.56802 11.0209 2.74281 12.3077C3.9176 13.5944 5.54324 14.3787 7.28156 14.4973C9.01987 14.616 10.737 14.06 12.0758 12.9449L15.9224 16.7922C15.9795 16.8493 16.0473 16.8946 16.1219 16.9255C16.1966 16.9565 16.2765 16.9724 16.3573 16.9724C16.4381 16.9724 16.5181 16.9565 16.5927 16.9255C16.6673 16.8946 16.7351 16.8493 16.7922 16.7922C16.8493 16.7351 16.8946 16.6673 16.9255 16.5927C16.9565 16.5181 16.9724 16.4381 16.9724 16.3573C16.9724 16.2765 16.9565 16.1966 16.9255 16.1219C16.8946 16.0473 16.8493 15.9795 16.7922 15.9224ZM2.21879 7.75125C2.21879 6.65703 2.54326 5.58739 3.15118 4.67758C3.75909 3.76777 4.62314 3.05866 5.63407 2.63992C6.64499 2.22118 7.75739 2.11162 8.83058 2.32509C9.90377 2.53856 10.8896 3.06548 11.6633 3.83921C12.437 4.61294 12.9639 5.59873 13.1774 6.67192C13.3909 7.74511 13.2813 8.85751 12.8626 9.86843C12.4438 10.8794 11.7347 11.7434 10.8249 12.3513C9.91511 12.9592 8.84547 13.2837 7.75125 13.2837C6.28445 13.2821 4.87819 12.6987 3.841 11.6615C2.80382 10.6243 2.22041 9.21805 2.21879 7.75125Z" fill="#343330"/>
</svg>
