<svg width="21" height="20" viewBox="0 0 21 20" fill="none" xmlns="http://www.w3.org/2000/svg">
<path d="M14.7631 12.5786H13.8597L13.5396 12.2699C14.6602 10.9663 15.3349 9.27387 15.3349 7.43282C15.3349 3.32762 12.0073 0 7.90206 0C3.79685 0 0.469238 3.32762 0.469238 7.43282C0.469238 11.538 3.79685 14.8656 7.90206 14.8656C9.74311 14.8656 11.4355 14.191 12.7391 13.0703L13.0479 13.3905V14.2939L18.7654 20L20.4692 18.2962L14.7631 12.5786ZM7.90206 12.5786C5.05472 12.5786 2.75626 10.2802 2.75626 7.43282C2.75626 4.58548 5.05472 2.28702 7.90206 2.28702C10.7494 2.28702 13.0479 4.58548 13.0479 7.43282C13.0479 10.2802 10.7494 12.5786 7.90206 12.5786Z" fill="black" fill-opacity="0.45"/>
</svg>