<svg width="16" height="16" viewBox="0 0 16 16" fill="none" xmlns="http://www.w3.org/2000/svg">
<path d="M12.8774 0.212557L15.7863 3.1215C15.9228 3.25796 15.9995 3.44304 15.9995 3.63602C15.9995 3.829 15.9228 4.01408 15.7863 4.15054C15.6499 4.287 15.4648 4.36366 15.2718 4.36366C15.0788 4.36366 14.8937 4.287 14.7573 4.15054L13.0901 2.48244L13.0901 15.2718C13.0901 15.4647 13.0135 15.6496 12.8771 15.786C12.7407 15.9224 12.5557 15.999 12.3629 15.999C12.17 15.999 11.985 15.9224 11.8486 15.786C11.7122 15.6496 11.6356 15.4647 11.6356 15.2718L11.6356 2.48244L9.96844 4.15054C9.83198 4.287 9.6469 4.36366 9.45392 4.36366C9.26094 4.36366 9.07586 4.287 8.9394 4.15054C8.80294 4.01408 8.72628 3.829 8.72628 3.63602C8.72628 3.44304 8.80294 3.25796 8.9394 3.1215L11.8483 0.212557C11.9159 0.144941 11.9961 0.0913003 12.0844 0.0547027C12.1727 0.018105 12.2673 -0.000731096 12.3629 -0.000731096C12.4584 -0.000731096 12.5531 0.018105 12.6414 0.0547027C12.7296 0.0913003 12.8098 0.144941 12.8774 0.212557ZM7.0595 12.8774C7.19596 12.7409 7.27262 12.5558 7.27262 12.3629C7.27262 12.1699 7.19596 11.9848 7.0595 11.8483C6.92304 11.7119 6.73796 11.6352 6.54498 11.6352C6.352 11.6352 6.16692 11.7119 6.03046 11.8483L4.36327 13.5164L4.36327 0.727076C4.36327 0.534201 4.28665 0.349226 4.15027 0.212842C4.01388 0.0764591 3.82891 -0.000159614 3.63603 -0.000159614C3.44316 -0.000159614 3.25818 0.0764591 3.1218 0.212842C2.98542 0.349226 2.9088 0.534201 2.9088 0.727076L2.9088 13.5164L1.24161 11.8483C1.10515 11.7119 0.920073 11.6352 0.727091 11.6352C0.534109 11.6352 0.349031 11.7119 0.212572 11.8483C0.0761125 11.9848 -0.000549314 12.1699 -0.000549316 12.3629C-0.000549319 12.5558 0.0761125 12.7409 0.212572 12.8774L3.12151 15.7863C3.18906 15.8539 3.26926 15.9076 3.35755 15.9442C3.44583 15.9808 3.54046 15.9996 3.63603 15.9996C3.7316 15.9996 3.82624 15.9808 3.91452 15.9442C4.00281 15.9076 4.08301 15.8539 4.15055 15.7863L7.0595 12.8774Z" fill="#343330"/>
</svg>
