<svg width="16" height="16" viewBox="0 0 16 16" fill="none" xmlns="http://www.w3.org/2000/svg">
<path d="M8 0C6.41775 0 4.87103 0.469192 3.55544 1.34824C2.23985 2.22729 1.21447 3.47672 0.608967 4.93853C0.00346628 6.40034 -0.15496 8.00887 0.153721 9.56072C0.462403 11.1126 1.22433 12.538 2.34315 13.6569C3.46197 14.7757 4.88743 15.5376 6.43928 15.8463C7.99113 16.155 9.59966 15.9965 11.0615 15.391C12.5233 14.7855 13.7727 13.7602 14.6518 12.4446C15.5308 11.129 16 9.58225 16 8C15.9978 5.87895 15.1542 3.84542 13.6544 2.34562C12.1546 0.845814 10.121 0.00223986 8 0ZM8 14.7692C6.66117 14.7692 5.35241 14.3722 4.23922 13.6284C3.12603 12.8846 2.2584 11.8274 1.74605 10.5905C1.2337 9.35356 1.09965 7.99249 1.36084 6.67939C1.62203 5.36629 2.26674 4.16012 3.21343 3.21343C4.16013 2.26674 5.36629 1.62203 6.67939 1.36084C7.99249 1.09965 9.35356 1.2337 10.5905 1.74605C11.8274 2.25839 12.8846 3.12602 13.6284 4.23922C14.3722 5.35241 14.7692 6.66117 14.7692 8C14.7672 9.79468 14.0534 11.5153 12.7843 12.7843C11.5153 14.0534 9.79469 14.7672 8 14.7692ZM11.5123 8.79538C11.5695 8.85256 11.6148 8.92043 11.6458 8.99514C11.6767 9.06984 11.6927 9.14991 11.6927 9.23077C11.6927 9.31163 11.6767 9.39169 11.6458 9.4664C11.6148 9.5411 11.5695 9.60898 11.5123 9.66615C11.4551 9.72333 11.3873 9.76868 11.3126 9.79962C11.2378 9.83057 11.1578 9.84649 11.0769 9.84649C10.9961 9.84649 10.916 9.83057 10.8413 9.79962C10.7666 9.76868 10.6987 9.72333 10.6415 9.66615L8 7.02384L5.35846 9.66615C5.30129 9.72333 5.23341 9.76868 5.15871 9.79962C5.084 9.83057 5.00394 9.84649 4.92308 9.84649C4.84222 9.84649 4.76215 9.83057 4.68745 9.79962C4.61275 9.76868 4.54487 9.72333 4.48769 9.66615C4.43052 9.60898 4.38516 9.5411 4.35422 9.4664C4.32328 9.39169 4.30735 9.31163 4.30735 9.23077C4.30735 9.14991 4.32328 9.06984 4.35422 8.99514C4.38516 8.92043 4.43052 8.85256 4.48769 8.79538L7.56462 5.71846C7.62177 5.66124 7.68964 5.61585 7.76435 5.58488C7.83905 5.55392 7.91913 5.53798 8 5.53798C8.08087 5.53798 8.16095 5.55392 8.23566 5.58488C8.31036 5.61585 8.37823 5.66124 8.43539 5.71846L11.5123 8.79538Z" fill="#343330"/>
</svg>
