<svg width="14" height="12" viewBox="0 0 14 12" fill="none" xmlns="http://www.w3.org/2000/svg">
<path d="M3.47368 1.36842C3.47368 1.21487 3.53468 1.06762 3.64325 0.959044C3.75183 0.85047 3.89909 0.789474 4.05263 0.789474H13.3158C13.4693 0.789474 13.6166 0.85047 13.7252 0.959044C13.8337 1.06762 13.8947 1.21487 13.8947 1.36842C13.8947 1.52197 13.8337 1.66922 13.7252 1.7778C13.6166 1.88637 13.4693 1.94737 13.3158 1.94737H4.05263C3.89909 1.94737 3.75183 1.88637 3.64325 1.7778C3.53468 1.66922 3.47368 1.52197 3.47368 1.36842ZM13.3158 5.42105H4.05263C3.89909 5.42105 3.75183 5.48205 3.64325 5.59062C3.53468 5.6992 3.47368 5.84645 3.47368 6C3.47368 6.15355 3.53468 6.3008 3.64325 6.40938C3.75183 6.51795 3.89909 6.57895 4.05263 6.57895H13.3158C13.4693 6.57895 13.6166 6.51795 13.7252 6.40938C13.8337 6.3008 13.8947 6.15355 13.8947 6C13.8947 5.84645 13.8337 5.6992 13.7252 5.59062C13.6166 5.48205 13.4693 5.42105 13.3158 5.42105ZM13.3158 10.0526H4.05263C3.89909 10.0526 3.75183 10.1136 3.64325 10.2222C3.53468 10.3308 3.47368 10.478 3.47368 10.6316C3.47368 10.7851 3.53468 10.9324 3.64325 11.041C3.75183 11.1495 3.89909 11.2105 4.05263 11.2105H13.3158C13.4693 11.2105 13.6166 11.1495 13.7252 11.041C13.8337 10.9324 13.8947 10.7851 13.8947 10.6316C13.8947 10.478 13.8337 10.3308 13.7252 10.2222C13.6166 10.1136 13.4693 10.0526 13.3158 10.0526ZM0.868422 0.5C0.696664 0.5 0.528764 0.550932 0.385953 0.646355C0.243141 0.741779 0.131834 0.877408 0.066105 1.03609C0.000376275 1.19477 -0.0168214 1.36938 0.0166869 1.53784C0.0501951 1.7063 0.132904 1.86104 0.254355 1.98249C0.375806 2.10394 0.530544 2.18665 0.699001 2.22016C0.867458 2.25366 1.04207 2.23647 1.20075 2.17074C1.35944 2.10501 1.49506 1.9937 1.59049 1.85089C1.68591 1.70808 1.73684 1.54018 1.73684 1.36842C1.73684 1.1381 1.64535 0.917215 1.48249 0.754355C1.31963 0.591494 1.09874 0.5 0.868422 0.5ZM0.868422 5.13158C0.696664 5.13158 0.528764 5.18251 0.385953 5.27793C0.243141 5.37336 0.131834 5.50899 0.066105 5.66767C0.000376275 5.82635 -0.0168214 6.00096 0.0166869 6.16942C0.0501951 6.33788 0.132904 6.49262 0.254355 6.61407C0.375806 6.73552 0.530544 6.81823 0.699001 6.85173C0.867458 6.88524 1.04207 6.86804 1.20075 6.80232C1.35944 6.73659 1.49506 6.62528 1.59049 6.48247C1.68591 6.33966 1.73684 6.17176 1.73684 6C1.73684 5.76968 1.64535 5.54879 1.48249 5.38593C1.31963 5.22307 1.09874 5.13158 0.868422 5.13158ZM0.868422 9.76316C0.696664 9.76316 0.528764 9.81409 0.385953 9.90951C0.243141 10.0049 0.131834 10.1406 0.066105 10.2992C0.000376275 10.4579 -0.0168214 10.6325 0.0166869 10.801C0.0501951 10.9695 0.132904 11.1242 0.254355 11.2456C0.375806 11.3671 0.530544 11.4498 0.699001 11.4833C0.867458 11.5168 1.04207 11.4996 1.20075 11.4339C1.35944 11.3682 1.49506 11.2569 1.59049 11.114C1.68591 10.9712 1.73684 10.8033 1.73684 10.6316C1.73684 10.4013 1.64535 10.1804 1.48249 10.0175C1.31963 9.85465 1.09874 9.76316 0.868422 9.76316Z" fill="#343330"/>
</svg>
