<svg width="14" height="14" viewBox="0 0 14 14" fill="none" xmlns="http://www.w3.org/2000/svg">
<path d="M5.30637 0.5H1.76092C1.44748 0.5 1.14688 0.624513 0.925248 0.846146C0.703614 1.06778 0.579102 1.36838 0.579102 1.68182V5.22727C0.579102 5.54071 0.703614 5.84131 0.925248 6.06294C1.14688 6.28458 1.44748 6.40909 1.76092 6.40909H5.30637C5.61981 6.40909 5.92041 6.28458 6.14205 6.06294C6.36368 5.84131 6.48819 5.54071 6.48819 5.22727V1.68182C6.48819 1.36838 6.36368 1.06778 6.14205 0.846146C5.92041 0.624513 5.61981 0.5 5.30637 0.5ZM5.30637 5.22727H1.76092V1.68182H5.30637V5.22727ZM12.3973 0.5H8.85183C8.53839 0.5 8.23779 0.624513 8.01616 0.846146C7.79452 1.06778 7.67001 1.36838 7.67001 1.68182V5.22727C7.67001 5.54071 7.79452 5.84131 8.01616 6.06294C8.23779 6.28458 8.53839 6.40909 8.85183 6.40909H12.3973C12.7107 6.40909 13.0113 6.28458 13.233 6.06294C13.4546 5.84131 13.5791 5.54071 13.5791 5.22727V1.68182C13.5791 1.36838 13.4546 1.06778 13.233 0.846146C13.0113 0.624513 12.7107 0.5 12.3973 0.5ZM12.3973 5.22727H8.85183V1.68182H12.3973V5.22727ZM5.30637 7.59091H1.76092C1.44748 7.59091 1.14688 7.71542 0.925248 7.93706C0.703614 8.15869 0.579102 8.45929 0.579102 8.77273V12.3182C0.579102 12.6316 0.703614 12.9322 0.925248 13.1539C1.14688 13.3755 1.44748 13.5 1.76092 13.5H5.30637C5.61981 13.5 5.92041 13.3755 6.14205 13.1539C6.36368 12.9322 6.48819 12.6316 6.48819 12.3182V8.77273C6.48819 8.45929 6.36368 8.15869 6.14205 7.93706C5.92041 7.71542 5.61981 7.59091 5.30637 7.59091ZM5.30637 12.3182H1.76092V8.77273H5.30637V12.3182ZM12.3973 7.59091H8.85183C8.53839 7.59091 8.23779 7.71542 8.01616 7.93706C7.79452 8.15869 7.67001 8.45929 7.67001 8.77273V12.3182C7.67001 12.6316 7.79452 12.9322 8.01616 13.1539C8.23779 13.3755 8.53839 13.5 8.85183 13.5H12.3973C12.7107 13.5 13.0113 13.3755 13.233 13.1539C13.4546 12.9322 13.5791 12.6316 13.5791 12.3182V8.77273C13.5791 8.45929 13.4546 8.15869 13.233 7.93706C13.0113 7.71542 12.7107 7.59091 12.3973 7.59091ZM12.3973 12.3182H8.85183V8.77273H12.3973V12.3182Z" fill="#343330"/>
</svg>
